<svg width="430" height="100" viewBox="0 0 430 100" fill="none" xmlns="http://www.w3.org/2000/svg">
<g clip-path="url(#clip0_1274_6319)">
<path d="M99.8555 50.7759C99.8555 40.9896 96.9568 31.423 91.526 23.2859C86.0952 15.1488 78.3762 8.80674 69.3451 5.06166C60.314 1.31657 50.3764 0.336686 40.7891 2.24591C31.2017 4.15514 22.3951 8.86773 15.483 15.7877C8.57091 22.7078 3.8637 31.5244 1.95665 41.1227C0.0496072 50.7211 1.02837 60.67 4.76918 69.7114C8.50999 78.7529 14.8448 86.4807 22.9726 91.9177C31.1004 97.3547 40.6561 100.257 50.4313 100.257C56.922 100.258 63.3494 98.9785 69.3463 96.4922C75.3431 94.0059 80.792 90.3612 85.3817 85.7663C89.9713 81.1714 93.6118 75.7163 96.0953 69.7126C98.5788 63.7088 99.8565 57.2741 99.8555 50.7759ZM50.4313 12.3334C53.7221 12.3323 56.9997 12.7502 60.1853 13.577L54.1653 27.787C44.2128 24.0781 34.547 21.9661 26.4615 21.7895H25.2119C32.1899 15.6718 41.1559 12.31 50.4313 12.3334ZM50.4313 89.2185C47.1202 89.2178 43.8228 88.795 40.6184 87.9601L45.0287 77.4885C43.3332 76.8557 41.6181 76.1762 39.8834 75.4501C38.1707 74.7142 36.4948 73.9784 34.8557 73.1762L30.4454 83.6331C27.8283 82.0343 25.4102 80.1297 23.242 77.9595C16.5214 71.2456 12.5429 62.2641 12.0841 52.7702L12.9588 53.6606C19.6771 60.3424 29.8207 66.7373 41.5299 71.7118C53.2391 76.6864 64.8969 79.5416 74.3495 79.7477C74.7979 79.7477 75.2316 79.7477 75.6579 79.7477C68.6826 85.8765 59.7119 89.2444 50.4313 89.2185ZM63.5003 44.0353C70.2627 47.619 75.996 51.6369 80.0976 55.7137C84.8239 60.4087 86.2793 64.1985 85.6325 65.7365C84.9856 67.2745 81.2222 68.8566 74.6068 68.68C66.5213 68.5034 56.3116 65.9646 45.8593 61.5198C35.407 57.0751 26.4615 51.5118 20.7208 45.8235C15.9872 41.1285 14.5391 37.3387 15.1933 35.8007C15.8475 34.2627 19.6036 32.6806 26.2189 32.8572C32.8343 33.0338 41.2138 34.8146 49.8359 38.0084L42.3825 55.5592C42.3825 55.5592 42.3384 55.6254 42.3237 55.6622C43.9482 56.4496 45.6314 57.2149 47.3514 57.9435C49.0714 58.672 50.7767 59.349 52.4967 59.9745L59.9942 42.2544L64.3162 32.0992L70.3289 17.882C72.9661 19.4888 75.4017 21.4059 77.5837 23.5924C84.3295 30.3082 88.3248 39.3054 88.7858 48.8185L87.867 47.8766C82.8393 42.8946 75.9078 38.0599 67.8224 33.8506L63.5003 44.0353Z" fill="#DE1F3F"/>
<path d="M134.233 67.0022C137.061 69.8758 140.439 72.1482 144.165 73.6833C147.891 75.2184 151.888 75.9845 155.917 75.9358C164.003 75.9358 168.773 72.1902 168.773 67.6718C168.818 66.4072 168.554 65.1507 168.003 64.0118C167.452 62.8729 166.631 61.8861 165.612 61.1372C163.598 59.5133 159.664 57.497 153.808 55.0882C142.297 50.1873 136.056 44.8889 136.056 35.3224C136.056 29.8474 138.168 25.5253 142.392 22.3561C146.612 19.0888 151.985 17.4552 158.512 17.4552C164.745 17.4552 170.214 18.9932 174.727 22.0618V34.2407C170.342 30.3488 164.657 28.2477 158.799 28.3536C151.985 28.3536 148.052 31.1426 148.052 35.2709C147.67 37.4785 149.684 39.3992 151.316 40.8415C152.176 41.5774 155.153 43.0492 156.204 43.5349L159.372 44.9698C160.908 45.6469 161.967 46.0295 162.444 46.3165C168.876 49.1055 173.47 52.0785 176.359 55.2501C179.248 58.4218 180.673 62.5501 180.673 67.7013C180.715 70.3061 180.167 72.8865 179.071 75.2493C177.975 77.6121 176.36 79.6959 174.345 81.3446C170.118 84.8989 164.172 86.7239 156.593 86.7239C148.052 86.7239 140.57 84.4205 134.233 79.9022V67.0022Z" fill="#141C32"/>
<path d="M198.226 85.5391V18.5737H223.754C229.391 18.5695 234.812 20.7414 238.889 24.6374C243.299 28.67 245.504 33.9537 245.504 40.3926C245.574 43.3049 245.02 46.1983 243.879 48.878C242.738 51.5577 241.036 53.9614 238.889 55.9271C236.895 57.9053 234.528 59.4677 231.926 60.5237C229.325 61.5797 226.54 62.1084 223.732 62.0791H210.222V85.517L198.226 85.5391ZM210.222 51.2469H223.181C228.554 51.2469 233.641 47.3099 233.641 40.3926C233.641 33.4753 228.554 29.4353 223.181 29.4353H210.222V51.2469Z" fill="#141C32"/>
<path d="M263.38 85.5391V18.5737H275.376V85.5391H263.38Z" fill="#141C32"/>
<path d="M350.116 24.446V37.221C344.235 31.2677 337.355 28.2874 329.299 28.2874C326.166 28.2115 323.05 28.7775 320.143 29.9505C317.235 31.1236 314.598 32.879 312.393 35.109C307.88 39.62 305.675 45.2936 305.675 52.1079C305.675 58.9222 307.88 64.6179 312.393 69.1142C316.906 73.6104 322.566 75.8402 329.299 75.8402C337.385 75.8402 344.265 72.8966 350.116 66.9065V79.6815C344.456 84.3911 337.546 86.6944 329.299 86.6944C319.413 86.6944 310.967 83.4271 304.058 76.8925C297.148 70.3578 293.767 62.0055 293.767 52.1079C293.767 42.2103 297.222 33.9537 304.058 27.3234C310.894 20.693 319.413 17.4331 329.299 17.4331C337.451 17.4331 344.36 19.7364 350.116 24.446Z" fill="#141C32"/>
<path d="M362.876 85.5391L395.953 15.3211L428.956 85.5391H416.225L410.279 72.5728H381.487L375.533 85.5391H362.876ZM386 62.1969H405.744L395.887 40.3926L386 62.1969Z" fill="#141C32"/>
</g>
<defs>
<clipPath id="clip0_1274_6319">
<rect width="430" height="100" fill="white"/>
</clipPath>
</defs>
</svg>
