<svg width="666" height="141" viewBox="0 0 666 141" fill="none" xmlns="http://www.w3.org/2000/svg">
<path d="M134.91 69.67C134.91 56.4459 130.988 43.5188 123.641 32.5235C116.294 21.5282 105.852 12.9586 93.6339 7.89846C81.4163 2.83828 67.9724 1.51481 55.0026 4.09543C42.0327 6.67605 30.1194 13.0448 20.7693 22.3964C11.4192 31.7479 5.05216 43.6622 2.47348 56.6324C-0.105199 69.6026 1.22028 83.0463 6.28229 95.2631C11.3443 107.48 19.9155 117.921 30.9119 125.267C41.9082 132.612 54.8359 136.532 68.06 136.53C76.8401 136.531 85.5344 134.803 93.6463 131.443C101.758 128.083 109.129 123.158 115.337 116.949C121.545 110.741 126.468 103.369 129.827 95.257C133.185 87.1446 134.913 78.4501 134.91 69.67ZM68.06 17.73C72.5107 17.7293 76.9433 18.2972 81.25 19.42L73.1 38.61C59.65 33.61 46.55 30.75 35.64 30.51H34C43.4278 22.2604 55.5325 17.7185 68.06 17.73ZM68.06 121.61C63.5783 121.623 59.114 121.051 54.78 119.91L60.78 105.77C58.48 104.923 56.1733 104.007 53.86 103.02C51.54 102.02 49.27 101.02 47.06 99.95L41.06 114.07C33.8363 109.664 27.7949 103.564 23.4581 96.2981C19.1214 89.0324 16.6199 80.8196 16.17 72.37L17.35 73.58C26.45 82.58 40.17 91.24 56 98C71.83 104.76 87.61 108.59 100.4 108.87H102.17C92.7321 117.131 80.6025 121.661 68.06 121.61ZM85.73 60.61C94.88 65.45 102.63 70.88 108.19 76.39C114.58 82.73 116.55 87.86 115.67 89.93C114.79 92 109.73 94.15 100.73 93.93C89.79 93.68 76 90.25 61.84 84.24C47.68 78.23 35.63 70.7 27.86 63C21.47 56.65 19.51 51.53 20.39 49.46C21.27 47.39 26.31 45.24 35.32 45.46C44.33 45.68 55.6 48.1 67.27 52.39L57.17 76.14C57.1375 76.1831 57.1107 76.2302 57.09 76.28C59.29 77.34 61.56 78.38 63.88 79.37C66.2 80.36 68.52 81.26 70.82 82.11L86.83 44.43L95 25.24C98.5652 27.4065 101.859 29.9915 104.81 32.94C113.918 42.0124 119.311 54.1591 119.93 67C119.53 66.58 119.12 66.17 118.69 65.73C111.9 59 102.51 52.46 91.57 46.73L85.73 60.61Z" fill="#2DB67E"/>
<path d="M172.94 108.14V42.75H188.38V52.09C191.1 45.73 197.72 41.45 206.02 41.45C214.97 41.45 221.02 45.21 224.32 52.87C228.08 45.21 235.21 41.45 245.72 41.45C260.13 41.45 268.43 51.45 268.43 67.66V108.14H252.86V69.87C252.86 60.87 248.58 55.33 241.18 55.33C233.53 55.33 228.18 61.56 228.18 70.51V108.14H212.77V69.87C212.77 60.87 208.49 55.33 201.09 55.33C193.69 55.33 188.38 61.69 188.38 70.51V108.14H172.94Z" fill="black"/>
<path d="M301.91 109.05L275.05 42.75H291.05L310.08 90.5L329.67 42.75H345.67L307.26 133.31H291.4L301.91 109.05Z" fill="black"/>
<path d="M357.7 108.14V17.71H364.18V55.33C367.687 46.25 375.083 41.71 386.37 41.71C393.76 41.71 399.6 44.05 404.14 48.85C408.68 53.65 410.89 59.85 410.89 67.79V108.14H404.4V69.14C404.4 56.14 396.75 47.86 384.94 47.86C372.36 47.86 364.18 57.86 364.18 73.03V108.19L357.7 108.14Z" fill="black"/>
<path d="M426.2 75.44C426.2 65.71 429.44 57.54 436.06 50.92C442.68 44.3 450.85 41.06 460.58 41.06C470.31 41.06 478.36 44.31 484.98 50.92C488.23 54.1095 490.794 57.93 492.514 62.1466C494.234 66.3633 495.073 70.8871 494.98 75.44C495.081 79.9982 494.247 84.5287 492.531 88.7526C490.815 92.9764 488.252 96.8042 485 100C478.38 106.61 470.33 109.86 460.6 109.86C450.87 109.86 442.7 106.61 436.08 100C429.46 93.39 426.2 85.18 426.2 75.44ZM432.69 75.44C432.69 83.44 435.28 90.24 440.6 95.69C443.218 98.3083 446.341 100.368 449.779 101.743C453.217 103.118 456.898 103.78 460.6 103.69C464.279 103.78 467.938 103.116 471.352 101.741C474.765 100.365 477.861 98.3059 480.45 95.69C483.081 93.0271 485.15 89.862 486.533 86.3831C487.916 82.9042 488.585 79.1827 488.5 75.44C488.596 71.7168 487.932 68.0131 486.547 64.5554C485.163 61.0977 483.089 57.9586 480.45 55.33C477.891 52.6634 474.804 50.5596 471.386 49.1529C467.968 47.7462 464.295 47.0675 460.6 47.16C456.883 47.0661 453.186 47.7436 449.744 49.1498C446.302 50.556 443.188 52.6603 440.6 55.33C435.28 60.65 432.69 67.4 432.69 75.44Z" fill="black"/>
<path d="M509.63 42.75H516.11V82.75C516.11 96.24 523.77 103.51 536.61 103.51C549.45 103.51 557.11 96.24 557.11 82.75V42.75H563.6V83.36C563.6 100.1 553.09 109.57 536.6 109.57C520.11 109.57 509.6 100.1 509.6 83.36L509.63 42.75Z" fill="black"/>
<path d="M581.25 108.14V42.75H587.73V55.85C590.98 46.38 598.37 41.71 609.92 41.71C610.958 41.6692 611.999 41.7127 613.03 41.84V48.59C611.653 48.4173 610.267 48.3304 608.88 48.33C602 48.33 596.81 50.66 593.18 55.2C589.55 59.74 587.73 65.45 587.73 72.33V108.14H581.25Z" fill="black"/>
<path d="M620.82 93.09C626.14 99.97 633.53 103.47 642.88 103.47C652.74 103.47 658.44 99.06 658.44 91.92C658.44 87.92 657.44 85.18 653.64 82.45C652.168 81.1919 650.557 80.105 648.84 79.21C647.55 78.43 645.21 77.13 641.71 75.44C629.64 69.35 624.58 65.19 624.58 57C624.58 47.27 631.98 41 643.52 41C649.36 41 654.16 42.56 657.93 45.54V52.42C654.149 48.9192 649.151 47.032 644 47.16C635.7 47.16 631 50.79 631 57.02C631 61.82 634 64.42 641.77 68.44L646.44 70.9C648.77 72.07 650.33 72.98 650.98 73.37C652.286 74.0101 653.542 74.7454 654.74 75.57C656.068 76.2257 657.311 77.0417 658.44 78C659.61 79.17 662.6 81.76 663.25 83.84C664.338 86.3681 664.909 89.088 664.93 91.84C664.93 96.38 663.12 100.41 659.35 104.04C655.58 107.67 650.27 109.49 642.88 109.49C633.14 109.49 625.88 106.63 620.82 100.8V93.09Z" fill="black"/>
</svg>
